<?xml version="1.0" standalone="no"?>
<!DOCTYPE svg PUBLIC "-//W3C//DTD SVG 20010904//EN"
 "http://www.w3.org/TR/2001/REC-SVG-20010904/DTD/svg10.dtd">
<svg version="1.0" xmlns="http://www.w3.org/2000/svg"
 width="500.000000pt" height="500.000000pt" viewBox="0 0 500.000000 500.000000"
 preserveAspectRatio="xMidYMid meet">

<g transform="translate(0.000000,500.000000) scale(0.100000,-0.100000)"
fill="#000000" stroke="none">
<path d="M2050 2389 c0 -8 10 -92 22 -186 l22 -173 53 0 c29 0 53 2 53 5 0 7
-141 359 -146 364 -2 2 -4 -2 -4 -10z"/>
<path d="M875 1945 c-21 -47 -36 -87 -34 -88 5 -4 590 160 597 168 3 3 -114 5
-260 5 l-265 0 -38 -85z"/>
</g>
</svg>
